<?xml version="1.0" standalone="no"?>
<!DOCTYPE svg PUBLIC "-//W3C//DTD SVG 20010904//EN"
 "http://www.w3.org/TR/2001/REC-SVG-20010904/DTD/svg10.dtd">
<svg version="1.0" xmlns="http://www.w3.org/2000/svg"
 width="300.000000pt" height="233.000000pt" viewBox="0 0 300.000000 233.000000"
 preserveAspectRatio="xMidYMid meet">
<metadata>
Created by potrace 1.10, written by Peter Selinger 2001-2011
</metadata>
<g transform="translate(0.000000,233.000000) scale(0.100000,-0.100000)"
fill="#000000" stroke="none">
<path d="M1265 2310 c-446 -51 -834 -230 -1058 -488 -107 -123 -181 -274 -192
-389 -6 -69 5 -49 28 48 56 237 248 453 538 608 53 28 134 65 180 82 46 16 93
34 104 38 73 33 347 80 567 97 107 9 425 -28 578 -66 196 -50 372 -126 525
-228 93 -62 238 -194 278 -252 56 -83 73 -112 98 -172 60 -141 73 -283 38
-428 -30 -122 -75 -211 -162 -315 -64 -76 -86 -98 -174 -169 -64 -51 -86 -76
-68 -76 16 0 130 93 200 164 96 96 175 220 213 331 24 72 26 94 26 225 0 138
-1 149 -32 229 -46 123 -113 224 -216 326 -212 211 -513 353 -881 416 -137 24
-457 34 -590 19z"/>
<path d="M1500 1929 c-321 -52 -517 -128 -690 -267 -121 -96 -186 -188 -225
-318 -27 -89 -5 -226 54 -339 35 -66 159 -191 246 -247 69 -45 194 -108 212
-108 6 0 23 -6 39 -14 42 -21 84 -30 84 -18 0 6 -24 18 -52 28 -239 78 -448
238 -525 399 -66 139 -65 255 3 393 107 218 390 388 767 459 131 25 529 25
672 0 375 -65 607 -215 692 -447 25 -68 28 -87 28 -210 0 -115 -3 -145 -23
-202 -43 -125 -144 -240 -281 -321 l-44 -26 -46 24 c-26 12 -67 29 -91 36 -43
12 -44 13 -15 17 90 10 208 65 278 130 86 80 121 152 137 278 25 197 -56 366
-216 451 -130 68 -112 67 -723 71 l-554 3 4 -678 c3 -449 1 -677 -6 -676 -5 0
-28 4 -50 7 -243 38 -508 131 -680 239 -244 151 -415 369 -459 581 -18 86 -31
99 -22 23 15 -138 109 -308 242 -440 139 -137 289 -232 487 -310 116 -45 336
-103 429 -113 l63 -6 -3 -159 -3 -159 261 0 261 0 -2 158 -1 157 59 7 c79 10
257 48 274 58 30 19 -4 22 -63 7 -35 -9 -103 -24 -153 -32 -49 -9 -98 -19
-108 -22 -18 -5 -19 4 -15 161 l3 166 82 0 c78 0 84 -2 118 -31 45 -40 96
-125 241 -401 l119 -228 288 0 c158 0 287 2 287 4 0 3 -33 60 -74 128 -40 68
-124 209 -186 313 -62 105 -122 200 -133 213 -16 17 -17 22 -5 22 22 0 127 71
180 123 66 64 113 139 144 232 22 67 27 98 27 190 1 152 -37 269 -122 375
-121 153 -321 252 -611 305 -109 20 -508 29 -600 14z m851 -269 c64 -12 197
-74 205 -95 4 -8 10 -15 16 -15 17 0 59 -55 91 -120 31 -63 31 -68 30 -190 -2
-127 -9 -157 -51 -236 -43 -84 -205 -192 -309 -209 -44 -7 -67 -24 -55 -41 7
-11 61 -37 99 -49 13 -3 43 -18 69 -32 37 -21 51 -37 77 -92 18 -36 34 -68 37
-71 5 -4 74 -119 137 -227 10 -17 43 -74 73 -125 30 -51 58 -101 62 -110 7
-17 -6 -18 -253 -16 l-261 3 -47 90 c-47 90 -132 244 -183 333 -15 26 -40 71
-55 101 -15 29 -48 71 -72 92 -43 39 -45 39 -127 39 -112 0 -119 -7 -110 -113
4 -44 4 -185 0 -313 l-7 -234 -228 0 -228 0 -3 117 c-2 65 -2 336 -1 603 2
267 3 583 3 703 l0 217 519 0 c310 0 540 -4 572 -10z"/>
<path d="M1735 1329 c-4 -11 -7 -82 -7 -156 0 -104 3 -137 13 -144 8 -5 93 -8
189 -7 206 3 236 13 270 82 42 88 17 185 -60 224 -41 20 -58 22 -221 22 -171
0 -178 -1 -184 -21z m412 -27 c55 -39 69 -136 28 -198 -33 -51 -83 -64 -262
-64 l-163 0 0 146 0 146 183 -4 c170 -3 184 -4 214 -26z"/>
<path d="M1848 563 c-49 -2 -88 -8 -88 -13 0 -11 143 -13 203 -4 45 8 49 25 5
22 -18 -1 -72 -4 -120 -5z"/>
</g>
</svg>
